<?xml version="1.0" encoding="UTF-8" ?>
<svg version="1.1" width="640" height="640" xmlns="http://www.w3.org/2000/svg" shape-rendering="crispEdges">
<rect x="30" y="230" width="580" height="10" fill="#4B692F" />
<rect x="30" y="240" width="10" height="10" fill="#4B692F" />
<rect x="40" y="240" width="130" height="10" fill="#6ABE30" />
<rect x="170" y="240" width="10" height="10" fill="#99E550" />
<rect x="180" y="240" width="120" height="10" fill="#6ABE30" />
<rect x="300" y="240" width="10" height="10" fill="#99E550" />
<rect x="310" y="240" width="80" height="10" fill="#6ABE30" />
<rect x="390" y="240" width="10" height="10" fill="#99E550" />
<rect x="400" y="240" width="200" height="10" fill="#6ABE30" />
<rect x="600" y="240" width="10" height="10" fill="#4B692F" />
<rect x="20" y="250" width="10" height="10" fill="#4B692F" />
<rect x="30" y="250" width="130" height="30" fill="#6ABE30" />
<rect x="160" y="250" width="10" height="10" fill="#99E550" />
<rect x="170" y="250" width="60" height="10" fill="#6ABE30" />
<rect x="230" y="250" width="10" height="10" fill="#99E550" />
<rect x="240" y="250" width="10" height="30" fill="#6ABE30" />
<rect x="250" y="250" width="10" height="10" fill="#99E550" />
<rect x="260" y="250" width="30" height="30" fill="#6ABE30" />
<rect x="290" y="250" width="10" height="10" fill="#99E550" />
<rect x="300" y="250" width="40" height="30" fill="#6ABE30" />
<rect x="340" y="250" width="20" height="10" fill="#99E550" />
<rect x="360" y="250" width="40" height="10" fill="#6ABE30" />
<rect x="400" y="250" width="10" height="10" fill="#99E550" />
<rect x="410" y="250" width="40" height="10" fill="#6ABE30" />
<rect x="450" y="250" width="10" height="10" fill="#99E550" />
<rect x="460" y="250" width="150" height="10" fill="#6ABE30" />
<rect x="610" y="250" width="10" height="10" fill="#4B692F" />
<rect x="0" y="260" width="20" height="10" fill="#4B692F" />
<rect x="20" y="260" width="10" height="80" fill="#6ABE30" />
<rect x="160" y="260" width="60" height="10" fill="#6ABE30" />
<rect x="220" y="260" width="10" height="10" fill="#99E550" />
<rect x="230" y="260" width="10" height="30" fill="#6ABE30" />
<rect x="250" y="260" width="10" height="10" fill="#6ABE30" />
<rect x="290" y="260" width="10" height="40" fill="#6ABE30" />
<rect x="340" y="260" width="20" height="10" fill="#6ABE30" />
<rect x="360" y="260" width="10" height="10" fill="#99E550" />
<rect x="370" y="260" width="60" height="20" fill="#6ABE30" />
<rect x="430" y="260" width="20" height="10" fill="#99E550" />
<rect x="450" y="260" width="20" height="10" fill="#6ABE30" />
<rect x="470" y="260" width="10" height="10" fill="#99E550" />
<rect x="480" y="260" width="140" height="20" fill="#6ABE30" />
<rect x="620" y="260" width="20" height="10" fill="#4B692F" />
<rect x="0" y="270" width="10" height="60" fill="#4B692F" />
<rect x="10" y="270" width="10" height="60" fill="#6ABE30" />
<rect x="160" y="270" width="30" height="10" fill="#6ABE30" />
<rect x="190" y="270" width="10" height="10" fill="#4B692F" />
<rect x="200" y="270" width="30" height="10" fill="#6ABE30" />
<rect x="250" y="270" width="10" height="10" fill="#99E550" />
<rect x="340" y="270" width="20" height="10" fill="#4B692F" />
<rect x="360" y="270" width="10" height="10" fill="#6ABE30" />
<rect x="430" y="270" width="30" height="10" fill="#6ABE30" />
<rect x="460" y="270" width="10" height="10" fill="#99E550" />
<rect x="470" y="270" width="10" height="30" fill="#6ABE30" />
<rect x="620" y="270" width="10" height="60" fill="#6ABE30" />
<rect x="630" y="270" width="10" height="60" fill="#4B692F" />
<rect x="30" y="280" width="80" height="10" fill="#6ABE30" />
<rect x="110" y="280" width="10" height="10" fill="#4B692F" />
<rect x="120" y="280" width="20" height="10" fill="#6ABE30" />
<rect x="140" y="280" width="10" height="10" fill="#4B692F" />
<rect x="150" y="280" width="10" height="10" fill="#6ABE30" />
<rect x="160" y="280" width="30" height="10" fill="#4B692F" />
<rect x="190" y="280" width="10" height="100" fill="#8F563B" />
<rect x="200" y="280" width="10" height="10" fill="#4B692F" />
<rect x="210" y="280" width="20" height="10" fill="#6ABE30" />
<rect x="240" y="280" width="10" height="10" fill="#99E550" />
<rect x="250" y="280" width="20" height="10" fill="#6ABE30" />
<rect x="270" y="280" width="10" height="10" fill="#4B692F" />
<rect x="280" y="280" width="10" height="10" fill="#6ABE30" />
<rect x="300" y="280" width="10" height="10" fill="#99E550" />
<rect x="310" y="280" width="30" height="10" fill="#4B692F" />
<rect x="340" y="280" width="20" height="20" fill="#8F563B" />
<rect x="360" y="280" width="20" height="10" fill="#4B692F" />
<rect x="380" y="280" width="10" height="10" fill="#99E550" />
<rect x="390" y="280" width="20" height="10" fill="#6ABE30" />
<rect x="410" y="280" width="10" height="10" fill="#4B692F" />
<rect x="420" y="280" width="10" height="10" fill="#6ABE30" />
<rect x="430" y="280" width="10" height="10" fill="#4B692F" />
<rect x="440" y="280" width="30" height="10" fill="#6ABE30" />
<rect x="480" y="280" width="10" height="10" fill="#6ABE30" />
<rect x="490" y="280" width="10" height="10" fill="#4B692F" />
<rect x="500" y="280" width="20" height="10" fill="#6ABE30" />
<rect x="520" y="280" width="10" height="10" fill="#4B692F" />
<rect x="530" y="280" width="90" height="10" fill="#6ABE30" />
<rect x="30" y="290" width="60" height="10" fill="#6ABE30" />
<rect x="90" y="290" width="20" height="10" fill="#4B692F" />
<rect x="110" y="290" width="10" height="30" fill="#8F563B" />
<rect x="120" y="290" width="20" height="10" fill="#4B692F" />
<rect x="140" y="290" width="10" height="90" fill="#8F563B" />
<rect x="150" y="290" width="10" height="10" fill="#4B692F" />
<rect x="160" y="290" width="30" height="10" fill="#8F563B" />
<rect x="200" y="290" width="10" height="90" fill="#8F563B" />
<rect x="210" y="290" width="60" height="10" fill="#4B692F" />
<rect x="270" y="290" width="10" height="30" fill="#8F563B" />
<rect x="280" y="290" width="10" height="10" fill="#4B692F" />
<rect x="300" y="290" width="10" height="10" fill="#4B692F" />
<rect x="310" y="290" width="30" height="80" fill="#8F563B" />
<rect x="360" y="290" width="20" height="20" fill="#8F563B" />
<rect x="380" y="290" width="30" height="10" fill="#4B692F" />
<rect x="410" y="290" width="10" height="30" fill="#8F563B" />
<rect x="420" y="290" width="10" height="10" fill="#4B692F" />
<rect x="430" y="290" width="10" height="20" fill="#8F563B" />
<rect x="440" y="290" width="10" height="10" fill="#4B692F" />
<rect x="450" y="290" width="20" height="10" fill="#6ABE30" />
<rect x="480" y="290" width="10" height="10" fill="#4B692F" />
<rect x="490" y="290" width="10" height="90" fill="#8F563B" />
<rect x="500" y="290" width="20" height="10" fill="#4B692F" />
<rect x="520" y="290" width="10" height="30" fill="#8F563B" />
<rect x="530" y="290" width="20" height="10" fill="#4B692F" />
<rect x="550" y="290" width="70" height="10" fill="#6ABE30" />
<rect x="30" y="300" width="50" height="10" fill="#6ABE30" />
<rect x="80" y="300" width="10" height="10" fill="#4B692F" />
<rect x="90" y="300" width="20" height="20" fill="#8F563B" />
<rect x="120" y="300" width="20" height="20" fill="#8F563B" />
<rect x="150" y="300" width="10" height="80" fill="#8F563B" />
<rect x="160" y="300" width="10" height="20" fill="#663931" />
<rect x="170" y="300" width="20" height="10" fill="#8F563B" />
<rect x="210" y="300" width="60" height="20" fill="#8F563B" />
<rect x="280" y="300" width="10" height="20" fill="#8F563B" />
<rect x="290" y="300" width="10" height="10" fill="#4B692F" />
<rect x="300" y="300" width="10" height="70" fill="#8F563B" />
<rect x="340" y="300" width="10" height="10" fill="#8F563B" />
<rect x="350" y="300" width="10" height="40" fill="#663931" />
<rect x="380" y="300" width="30" height="60" fill="#8F563B" />
<rect x="420" y="300" width="10" height="10" fill="#8F563B" />
<rect x="440" y="300" width="10" height="80" fill="#8F563B" />
<rect x="450" y="300" width="30" height="10" fill="#4B692F" />
<rect x="480" y="300" width="10" height="80" fill="#8F563B" />
<rect x="500" y="300" width="20" height="20" fill="#8F563B" />
<rect x="530" y="300" width="20" height="20" fill="#8F563B" />
<rect x="550" y="300" width="10" height="10" fill="#4B692F" />
<rect x="560" y="300" width="60" height="10" fill="#6ABE30" />
<rect x="30" y="310" width="30" height="10" fill="#6ABE30" />
<rect x="60" y="310" width="20" height="10" fill="#4B692F" />
<rect x="80" y="310" width="10" height="60" fill="#8F563B" />
<rect x="170" y="310" width="10" height="10" fill="#663931" />
<rect x="180" y="310" width="10" height="60" fill="#8F563B" />
<rect x="290" y="310" width="10" height="70" fill="#8F563B" />
<rect x="340" y="310" width="10" height="20" fill="#663931" />
<rect x="360" y="310" width="10" height="20" fill="#663931" />
<rect x="370" y="310" width="10" height="70" fill="#8F563B" />
<rect x="420" y="310" width="20" height="30" fill="#663931" />
<rect x="450" y="310" width="30" height="50" fill="#8F563B" />
<rect x="550" y="310" width="10" height="60" fill="#8F563B" />
<rect x="560" y="310" width="20" height="10" fill="#4B692F" />
<rect x="580" y="310" width="40" height="10" fill="#6ABE30" />
<rect x="30" y="320" width="20" height="10" fill="#6ABE30" />
<rect x="50" y="320" width="10" height="10" fill="#4B692F" />
<rect x="60" y="320" width="20" height="30" fill="#8F563B" />
<rect x="90" y="320" width="10" height="60" fill="#8F563B" />
<rect x="100" y="320" width="30" height="10" fill="#663931" />
<rect x="130" y="320" width="10" height="60" fill="#8F563B" />
<rect x="160" y="320" width="20" height="40" fill="#8F563B" />
<rect x="210" y="320" width="50" height="30" fill="#8F563B" />
<rect x="260" y="320" width="30" height="10" fill="#663931" />
<rect x="410" y="320" width="10" height="20" fill="#663931" />
<rect x="500" y="320" width="10" height="60" fill="#8F563B" />
<rect x="510" y="320" width="30" height="10" fill="#663931" />
<rect x="540" y="320" width="10" height="60" fill="#8F563B" />
<rect x="560" y="320" width="20" height="30" fill="#8F563B" />
<rect x="580" y="320" width="10" height="10" fill="#4B692F" />
<rect x="590" y="320" width="30" height="10" fill="#6ABE30" />
<rect x="0" y="330" width="10" height="60" fill="#663931" />
<rect x="10" y="330" width="10" height="10" fill="#4B692F" />
<rect x="30" y="330" width="20" height="10" fill="#4B692F" />
<rect x="50" y="330" width="10" height="40" fill="#8F563B" />
<rect x="100" y="330" width="10" height="40" fill="#8F563B" />
<rect x="110" y="330" width="10" height="10" fill="#663931" />
<rect x="120" y="330" width="10" height="40" fill="#8F563B" />
<rect x="260" y="330" width="10" height="30" fill="#8F563B" />
<rect x="270" y="330" width="20" height="10" fill="#663931" />
<rect x="340" y="330" width="10" height="40" fill="#8F563B" />
<rect x="360" y="330" width="10" height="50" fill="#8F563B" />
<rect x="510" y="330" width="10" height="40" fill="#8F563B" />
<rect x="520" y="330" width="10" height="10" fill="#663931" />
<rect x="530" y="330" width="10" height="40" fill="#8F563B" />
<rect x="580" y="330" width="10" height="40" fill="#8F563B" />
<rect x="590" y="330" width="20" height="10" fill="#4B692F" />
<rect x="610" y="330" width="10" height="10" fill="#6ABE30" />
<rect x="620" y="330" width="10" height="10" fill="#4B692F" />
<rect x="630" y="330" width="10" height="60" fill="#663931" />
<rect x="10" y="340" width="10" height="20" fill="#8F563B" />
<rect x="20" y="340" width="10" height="10" fill="#4B692F" />
<rect x="30" y="340" width="20" height="40" fill="#8F563B" />
<rect x="110" y="340" width="10" height="20" fill="#8F563B" />
<rect x="270" y="340" width="20" height="30" fill="#8F563B" />
<rect x="350" y="340" width="10" height="20" fill="#8F563B" />
<rect x="410" y="340" width="10" height="40" fill="#8F563B" />
<rect x="420" y="340" width="10" height="10" fill="#663931" />
<rect x="430" y="340" width="10" height="40" fill="#8F563B" />
<rect x="520" y="340" width="10" height="20" fill="#8F563B" />
<rect x="590" y="340" width="20" height="40" fill="#8F563B" />
<rect x="610" y="340" width="10" height="10" fill="#4B692F" />
<rect x="620" y="340" width="10" height="20" fill="#8F563B" />
<rect x="20" y="350" width="10" height="20" fill="#8F563B" />
<rect x="60" y="350" width="10" height="10" fill="#8F563B" />
<rect x="70" y="350" width="10" height="40" fill="#663931" />
<rect x="210" y="350" width="30" height="10" fill="#8F563B" />
<rect x="240" y="350" width="20" height="40" fill="#663931" />
<rect x="420" y="350" width="10" height="30" fill="#8F563B" />
<rect x="560" y="350" width="10" height="40" fill="#663931" />
<rect x="570" y="350" width="10" height="10" fill="#8F563B" />
<rect x="610" y="350" width="10" height="20" fill="#8F563B" />
<rect x="10" y="360" width="10" height="30" fill="#663931" />
<rect x="60" y="360" width="10" height="30" fill="#663931" />
<rect x="110" y="360" width="10" height="30" fill="#663931" />
<rect x="160" y="360" width="20" height="30" fill="#663931" />
<rect x="210" y="360" width="10" height="10" fill="#8F563B" />
<rect x="220" y="360" width="10" height="30" fill="#663931" />
<rect x="230" y="360" width="10" height="10" fill="#8F563B" />
<rect x="260" y="360" width="10" height="30" fill="#663931" />
<rect x="350" y="360" width="10" height="30" fill="#663931" />
<rect x="380" y="360" width="10" height="10" fill="#8F563B" />
<rect x="390" y="360" width="10" height="30" fill="#663931" />
<rect x="400" y="360" width="10" height="10" fill="#8F563B" />
<rect x="450" y="360" width="10" height="10" fill="#8F563B" />
<rect x="460" y="360" width="20" height="30" fill="#663931" />
<rect x="520" y="360" width="10" height="30" fill="#663931" />
<rect x="570" y="360" width="10" height="30" fill="#663931" />
<rect x="620" y="360" width="10" height="30" fill="#663931" />
<rect x="20" y="370" width="10" height="20" fill="#663931" />
<rect x="50" y="370" width="10" height="20" fill="#663931" />
<rect x="80" y="370" width="10" height="20" fill="#663931" />
<rect x="100" y="370" width="10" height="20" fill="#663931" />
<rect x="120" y="370" width="10" height="20" fill="#663931" />
<rect x="180" y="370" width="10" height="20" fill="#663931" />
<rect x="210" y="370" width="10" height="20" fill="#663931" />
<rect x="230" y="370" width="10" height="20" fill="#663931" />
<rect x="270" y="370" width="10" height="20" fill="#663931" />
<rect x="280" y="370" width="10" height="10" fill="#8F563B" />
<rect x="300" y="370" width="10" height="20" fill="#663931" />
<rect x="310" y="370" width="20" height="10" fill="#8F563B" />
<rect x="330" y="370" width="20" height="20" fill="#663931" />
<rect x="380" y="370" width="10" height="20" fill="#663931" />
<rect x="400" y="370" width="10" height="20" fill="#663931" />
<rect x="450" y="370" width="10" height="20" fill="#663931" />
<rect x="510" y="370" width="10" height="20" fill="#663931" />
<rect x="530" y="370" width="10" height="20" fill="#663931" />
<rect x="550" y="370" width="10" height="20" fill="#663931" />
<rect x="580" y="370" width="10" height="20" fill="#663931" />
<rect x="610" y="370" width="10" height="20" fill="#663931" />
<rect x="30" y="380" width="20" height="10" fill="#663931" />
<rect x="90" y="380" width="10" height="10" fill="#663931" />
<rect x="130" y="380" width="30" height="10" fill="#663931" />
<rect x="190" y="380" width="20" height="10" fill="#663931" />
<rect x="280" y="380" width="20" height="10" fill="#663931" />
<rect x="310" y="380" width="20" height="10" fill="#663931" />
<rect x="360" y="380" width="20" height="10" fill="#663931" />
<rect x="410" y="380" width="40" height="10" fill="#663931" />
<rect x="480" y="380" width="30" height="10" fill="#663931" />
<rect x="540" y="380" width="10" height="10" fill="#663931" />
<rect x="590" y="380" width="20" height="10" fill="#663931" />
</svg>