<?xml version="1.0" encoding="UTF-8" ?>
<svg version="1.1" width="320" height="320" xmlns="http://www.w3.org/2000/svg" shape-rendering="crispEdges">
<rect x="10" y="80" width="20" height="10" fill="#D9CCBA" />
<rect x="0" y="90" width="10" height="20" fill="#D9CCBA" />
<rect x="10" y="90" width="20" height="20" fill="#F8F6EF" />
<rect x="30" y="100" width="10" height="40" fill="#F8F6EF" />
<rect x="10" y="110" width="10" height="30" fill="#D9CCBA" />
<rect x="20" y="110" width="10" height="20" fill="#F8F6EF" />
<rect x="40" y="120" width="10" height="10" fill="#D9CCBA" />
<rect x="210" y="120" width="50" height="10" fill="#D9CCBA" />
<rect x="20" y="130" width="10" height="10" fill="#D9CCBA" />
<rect x="40" y="130" width="10" height="10" fill="#F8F6EF" />
<rect x="50" y="130" width="10" height="20" fill="#C4B5A3" />
<rect x="200" y="130" width="10" height="10" fill="#D9CCBA" />
<rect x="210" y="130" width="50" height="30" fill="#F8F6EF" />
<rect x="260" y="130" width="10" height="10" fill="#D9CCBA" />
<rect x="30" y="140" width="20" height="10" fill="#C4B5A3" />
<rect x="60" y="140" width="10" height="10" fill="#C4B5A3" />
<rect x="70" y="140" width="20" height="10" fill="#D9CCBA" />
<rect x="190" y="140" width="10" height="20" fill="#D9CCBA" />
<rect x="200" y="140" width="10" height="60" fill="#F8F6EF" />
<rect x="260" y="140" width="10" height="60" fill="#F8F6EF" />
<rect x="270" y="140" width="10" height="30" fill="#D9CCBA" />
<rect x="20" y="150" width="10" height="20" fill="#D9CCBA" />
<rect x="30" y="150" width="60" height="60" fill="#F8F6EF" />
<rect x="90" y="150" width="20" height="10" fill="#D9CCBA" />
<rect x="90" y="160" width="20" height="60" fill="#F8F6EF" />
<rect x="110" y="160" width="20" height="10" fill="#D9CCBA" />
<rect x="190" y="160" width="10" height="30" fill="#F8F6EF" />
<rect x="210" y="160" width="10" height="40" fill="#F8F6EF" />
<rect x="220" y="160" width="10" height="10" fill="#D9CCBA" />
<rect x="230" y="160" width="20" height="50" fill="#F8F6EF" />
<rect x="250" y="160" width="10" height="20" fill="#3B3B3B" />
<rect x="10" y="170" width="10" height="40" fill="#D9CCBA" />
<rect x="20" y="170" width="10" height="40" fill="#F8F6EF" />
<rect x="110" y="170" width="20" height="60" fill="#F8F6EF" />
<rect x="130" y="170" width="20" height="10" fill="#D9CCBA" />
<rect x="180" y="170" width="10" height="30" fill="#D9CCBA" />
<rect x="220" y="170" width="10" height="30" fill="#C4B5A3" />
<rect x="270" y="170" width="10" height="30" fill="#F8F6EF" />
<rect x="280" y="170" width="20" height="10" fill="#3B3B3B" />
<rect x="130" y="180" width="20" height="50" fill="#F8F6EF" />
<rect x="150" y="180" width="20" height="10" fill="#D9CCBA" />
<rect x="170" y="180" width="10" height="30" fill="#A4D2E1" />
<rect x="250" y="180" width="10" height="30" fill="#F8F6EF" />
<rect x="280" y="180" width="10" height="20" fill="#F8F6EF" />
<rect x="290" y="180" width="10" height="10" fill="#3B3B3B" />
<rect x="150" y="190" width="20" height="50" fill="#F8F6EF" />
<rect x="190" y="190" width="10" height="20" fill="#D9CCBA" />
<rect x="290" y="190" width="10" height="10" fill="#D9CCBA" />
<rect x="180" y="200" width="10" height="20" fill="#A4D2E1" />
<rect x="200" y="200" width="20" height="10" fill="#C4B5A3" />
<rect x="220" y="200" width="10" height="20" fill="#D9CCBA" />
<rect x="260" y="200" width="30" height="10" fill="#D9CCBA" />
<rect x="20" y="210" width="10" height="20" fill="#D9CCBA" />
<rect x="30" y="210" width="40" height="20" fill="#F8F6EF" />
<rect x="70" y="210" width="20" height="10" fill="#D9CCBA" />
<rect x="170" y="210" width="10" height="40" fill="#F8F6EF" />
<rect x="190" y="210" width="20" height="10" fill="#A4D2E1" />
<rect x="210" y="210" width="10" height="10" fill="#D9CCBA" />
<rect x="230" y="210" width="30" height="10" fill="#D9CCBA" />
<rect x="70" y="220" width="10" height="30" fill="#D9CCBA" />
<rect x="80" y="220" width="10" height="20" fill="#F8F6EF" />
<rect x="90" y="220" width="10" height="10" fill="#D9CCBA" />
<rect x="100" y="220" width="10" height="10" fill="#F8F6EF" />
<rect x="180" y="220" width="20" height="40" fill="#F8F6EF" />
<rect x="200" y="220" width="20" height="10" fill="#A4D2E1" />
<rect x="30" y="230" width="10" height="20" fill="#D9CCBA" />
<rect x="40" y="230" width="30" height="20" fill="#F8F6EF" />
<rect x="90" y="230" width="10" height="10" fill="#C4B5A3" />
<rect x="100" y="230" width="40" height="10" fill="#D9CCBA" />
<rect x="140" y="230" width="10" height="10" fill="#F8F6EF" />
<rect x="200" y="230" width="10" height="50" fill="#F8F6EF" />
<rect x="210" y="230" width="10" height="30" fill="#D9CCBA" />
<rect x="220" y="230" width="10" height="10" fill="#C4B5A3" />
<rect x="0" y="240" width="10" height="10" fill="#F8F6EF" opacity="0.019608" />
<rect x="80" y="240" width="10" height="20" fill="#D9CCBA" />
<rect x="90" y="240" width="10" height="20" fill="#F8F6EF" />
<rect x="100" y="240" width="10" height="10" fill="#C4B5A3" />
<rect x="110" y="240" width="10" height="10" fill="#D9CCBA" />
<rect x="140" y="240" width="20" height="10" fill="#D9CCBA" />
<rect x="160" y="240" width="10" height="10" fill="#F8F6EF" />
<rect x="220" y="240" width="10" height="10" fill="#F8F6EF" />
<rect x="230" y="240" width="40" height="10" fill="#C4B5A3" />
<rect x="40" y="250" width="10" height="10" fill="#D9CCBA" />
<rect x="50" y="250" width="30" height="10" fill="#F8F6EF" />
<rect x="100" y="250" width="20" height="10" fill="#F8F6EF" />
<rect x="120" y="250" width="10" height="10" fill="#C4B5A3" />
<rect x="160" y="250" width="20" height="10" fill="#D9CCBA" />
<rect x="220" y="250" width="10" height="10" fill="#D9CCBA" />
<rect x="230" y="250" width="40" height="10" fill="#F8F6EF" />
<rect x="270" y="250" width="10" height="10" fill="#C4B5A3" />
<rect x="50" y="260" width="10" height="10" fill="#D9CCBA" />
<rect x="60" y="260" width="30" height="10" fill="#F8F6EF" />
<rect x="90" y="260" width="40" height="10" fill="#D9CCBA" />
<rect x="180" y="260" width="10" height="10" fill="#D9CCBA" />
<rect x="190" y="260" width="10" height="10" fill="#F8F6EF" />
<rect x="210" y="260" width="20" height="20" fill="#F8F6EF" />
<rect x="230" y="260" width="60" height="10" fill="#D9CCBA" />
<rect x="60" y="270" width="10" height="10" fill="#D9CCBA" />
<rect x="70" y="270" width="50" height="10" fill="#F8F6EF" />
<rect x="120" y="270" width="10" height="20" fill="#D9CCBA" />
<rect x="190" y="270" width="10" height="10" fill="#D9CCBA" />
<rect x="230" y="270" width="60" height="10" fill="#F8F6EF" />
<rect x="290" y="270" width="10" height="20" fill="#C4B5A3" />
<rect x="0" y="280" width="10" height="10" fill="#F8F6EF" opacity="0.007843" />
<rect x="10" y="280" width="10" height="10" fill="#F8F6EF" opacity="0.015686" />
<rect x="20" y="280" width="10" height="10" fill="#F8F6EF" opacity="0.011765" />
<rect x="70" y="280" width="50" height="10" fill="#D9CCBA" />
<rect x="200" y="280" width="20" height="10" fill="#C4B5A3" />
<rect x="220" y="280" width="70" height="10" fill="#D9CCBA" />
</svg>