<?xml version="1.0" encoding="UTF-8" ?>
<svg version="1.1" width="320" height="320" xmlns="http://www.w3.org/2000/svg" shape-rendering="crispEdges">
<rect x="160" y="20" width="60" height="10" fill="#D9CCBA" />
<rect x="160" y="30" width="10" height="10" fill="#D9CCBA" />
<rect x="170" y="30" width="50" height="40" fill="#F8F6EF" />
<rect x="220" y="30" width="10" height="10" fill="#C4B5A3" />
<rect x="150" y="40" width="10" height="10" fill="#D9CCBA" />
<rect x="160" y="40" width="10" height="80" fill="#F8F6EF" />
<rect x="220" y="40" width="10" height="70" fill="#F8F6EF" />
<rect x="230" y="40" width="10" height="10" fill="#C4B5A3" />
<rect x="140" y="50" width="10" height="20" fill="#D9CCBA" />
<rect x="150" y="50" width="10" height="70" fill="#F8F6EF" />
<rect x="230" y="50" width="10" height="20" fill="#D9CCBA" />
<rect x="130" y="70" width="10" height="50" fill="#D9CCBA" />
<rect x="140" y="70" width="10" height="50" fill="#F8F6EF" />
<rect x="170" y="70" width="10" height="20" fill="#C4B5A3" />
<rect x="180" y="70" width="20" height="20" fill="#F8F6EF" />
<rect x="200" y="70" width="10" height="20" fill="#3B3B3B" />
<rect x="210" y="70" width="10" height="50" fill="#F8F6EF" />
<rect x="230" y="70" width="10" height="30" fill="#F8F6EF" />
<rect x="240" y="70" width="20" height="10" fill="#3B3B3B" />
<rect x="240" y="80" width="10" height="20" fill="#F8F6EF" />
<rect x="250" y="80" width="10" height="10" fill="#3B3B3B" />
<rect x="170" y="90" width="10" height="30" fill="#F8F6EF" />
<rect x="180" y="90" width="10" height="40" fill="#C4B5A3" />
<rect x="190" y="90" width="20" height="30" fill="#F8F6EF" />
<rect x="250" y="90" width="10" height="10" fill="#D9CCBA" />
<rect x="230" y="100" width="20" height="10" fill="#D9CCBA" />
<rect x="220" y="110" width="10" height="10" fill="#D9CCBA" />
<rect x="140" y="120" width="20" height="10" fill="#D9CCBA" />
<rect x="160" y="120" width="20" height="10" fill="#EDE9E0" />
<rect x="190" y="120" width="10" height="10" fill="#F8F6EF" />
<rect x="200" y="120" width="20" height="20" fill="#D9CCBA" />
<rect x="150" y="130" width="10" height="10" fill="#A4D2E1" />
<rect x="160" y="130" width="40" height="10" fill="#D9CCBA" />
<rect x="150" y="140" width="10" height="90" fill="#F8F6EF" />
<rect x="160" y="140" width="60" height="10" fill="#A4D2E1" />
<rect x="140" y="150" width="10" height="10" fill="#D9CCBA" />
<rect x="160" y="150" width="50" height="60" fill="#F8F6EF" />
<rect x="210" y="150" width="10" height="10" fill="#D9CCBA" />
<rect x="130" y="160" width="10" height="10" fill="#D9CCBA" />
<rect x="140" y="160" width="10" height="60" fill="#F8F6EF" />
<rect x="210" y="160" width="10" height="40" fill="#F8F6EF" />
<rect x="220" y="160" width="10" height="10" fill="#D9CCBA" />
<rect x="120" y="170" width="10" height="10" fill="#D9CCBA" />
<rect x="130" y="170" width="10" height="50" fill="#F8F6EF" />
<rect x="220" y="170" width="10" height="20" fill="#C4B5A3" />
<rect x="110" y="180" width="10" height="20" fill="#D9CCBA" />
<rect x="120" y="180" width="10" height="110" fill="#F8F6EF" />
<rect x="220" y="190" width="10" height="20" fill="#D9CCBA" />
<rect x="100" y="200" width="10" height="20" fill="#D9CCBA" />
<rect x="110" y="200" width="10" height="80" fill="#F8F6EF" />
<rect x="210" y="200" width="10" height="10" fill="#C4B5A3" />
<rect x="50" y="210" width="30" height="10" fill="#D9CCBA" />
<rect x="160" y="210" width="10" height="30" fill="#D9CCBA" />
<rect x="170" y="210" width="30" height="60" fill="#F8F6EF" />
<rect x="200" y="210" width="20" height="10" fill="#D9CCBA" />
<rect x="50" y="220" width="10" height="30" fill="#D9CCBA" />
<rect x="60" y="220" width="20" height="30" fill="#F8F6EF" />
<rect x="80" y="220" width="10" height="20" fill="#D9CCBA" />
<rect x="100" y="220" width="10" height="50" fill="#F8F6EF" />
<rect x="130" y="220" width="20" height="10" fill="#D9CCBA" />
<rect x="200" y="220" width="10" height="50" fill="#C4B5A3" />
<rect x="210" y="220" width="10" height="60" fill="#D9CCBA" />
<rect x="130" y="230" width="20" height="60" fill="#F8F6EF" />
<rect x="150" y="230" width="10" height="10" fill="#D9CCBA" />
<rect x="80" y="240" width="10" height="30" fill="#F8F6EF" />
<rect x="150" y="240" width="10" height="30" fill="#F8F6EF" />
<rect x="160" y="240" width="10" height="30" fill="#C4B5A3" />
<rect x="60" y="250" width="10" height="10" fill="#D9CCBA" />
<rect x="70" y="250" width="10" height="10" fill="#F8F6EF" />
<rect x="90" y="250" width="10" height="10" fill="#D9CCBA" />
<rect x="70" y="260" width="10" height="10" fill="#D9CCBA" />
<rect x="90" y="260" width="10" height="10" fill="#F8F6EF" />
<rect x="80" y="270" width="20" height="10" fill="#D9CCBA" />
<rect x="100" y="270" width="10" height="10" fill="#C4B5A3" />
<rect x="150" y="270" width="30" height="10" fill="#D9CCBA" />
<rect x="180" y="270" width="30" height="20" fill="#F8F6EF" />
<rect x="220" y="270" width="10" height="20" fill="#D9CCBA" />
<rect x="110" y="280" width="10" height="10" fill="#D9CCBA" />
<rect x="150" y="280" width="20" height="10" fill="#F8F6EF" />
<rect x="210" y="280" width="10" height="10" fill="#C4B5A3" />
</svg>